Release info:

General
Format                                   : Matroska
Format version                           : Version 4 / Version 2
File size                                : 694 MiB
Duration                                 : 1h 49mn
Overall bit rate                         : 884 Kbps

Video
ID                                       : 1
Format                                   : MPEG-4 Visual
Format profile                           : Advanced Simple@L5
Format settings, BVOP                    : Yes
Format settings, QPel                    : No
Format settings, GMC                     : No warppoints
Format settings, Matrix                  : Default (H.263)
Codec ID                                 : V_MS/VFW/FOURCC / XVID
Codec ID/Hint                            : XviD
Duration                                 : 1h 49mn
Bit rate                                 : 738 Kbps
Width                                    : 640 pixels
Height                                   : 272 pixels
Display aspect ratio                     : 2.35:1
Frame rate mode                          : Constant
Frame rate                               : 23.976 fps
Color space                              : YUV
Chroma subsampling                       : 4:2:0
Bit depth                                : 8 bits
Scan type                                : Progressive
Compression mode                         : Lossy
Bits/(Pixel*Frame)                       : 0.177
Stream size                              : 579 MiB (84%)
Language                                 : English
Default                                  : Yes
Forced                                   : No

Audio
ID                                       : 2
Format                                   : MPEG Audio
Format version                           : Version 1
Format profile                           : Layer 3
Mode                                     : Joint stereo
Mode extension                           : MS Stereo
Codec ID                                 : A_MPEG/L3
Codec ID/Hint                            : MP3
Duration                                 : 1h 49mn
Bit rate mode                            : Constant
Bit rate                                 : 128 Kbps
Channel(s)                               : 2 channels
Sampling rate                            : 48.0 KHz
Compression mode                         : Lossy
Stream size                              : 100 MiB (14%)
Language                                 : English
Default                                  : Yes
Forced                                   : No



Source:
credit to original movie ripper MeRCuRY (Thanks)

IMDB Info:

A true-crime writer finds a cache of 8mm "snuff" films that suggest the murder he is currently researching is the work of a serial killer whose career dates back to the 1960s.

Director: Scott Derrickson
Writers: Scott Derrickson, C. Robert Cargill
Stars: Ethan Hawke, Juliet Rylance and James Ransone 

Genres: Horror | Mystery | Thriller
 
http://www.imdb.com/title/tt1922777/

Screen Shot:
 
http://www.shotpix.com/images/57977028787200431395.png 
http://www.shotpix.com/images/94041409817695248691.png 
http://www.shotpix.com/images/60522158617723881585.png 
http://www.shotpix.com/images/83667866519817410150.png